<svg xmlns="http://www.w3.org/2000/svg" xmlns:xlink="http://www.w3.org/1999/xlink" xmlns:s="https://github.com/nturley/netlistsvg" width="147" height="553">
  <style>svg {
    stroke:#000;
    fill:none;
  }
  text {
    fill:#000;
    stroke:none;
    font-size:10px;
    font-weight: bold;
    font-family: "Courier New", monospace;
  }
  .nodelabel {
    text-anchor: middle;
  }
  .inputPortLabel {
    text-anchor: end;
  }
  .splitjoinBody {
    fill:#000;
  }</style>
  <g s:type="generic" transform="translate(105,110)" s:width="30" s:height="40" id="cell_J1">
    <text x="15" y="-4" class="nodelabel cell_J1" s:attribute="ref">HRO TYPE-C-31-M-12</text>
    <rect width="30" height="340" s:generic="body" class="cell_J1"/>
    <g transform="translate(0,10)" s:x="0" s:y="10" s:pid="in0" id="port_J1~GND_A1">
      <text x="-3" y="-4" class="inputPortLabel cell_J1">GND_A1</text>
    </g>
    <g transform="translate(0,30)" s:x="0" s:y="10" s:pid="in0" id="port_J1~VBUS_A4">
      <text x="-3" y="-4" class="inputPortLabel cell_J1">VBUS_A4</text>
    </g>
    <g transform="translate(0,50)" s:x="0" s:y="10" s:pid="in0" id="port_J1~CC1">
      <text x="-3" y="-4" class="inputPortLabel cell_J1">CC1</text>
    </g>
    <g transform="translate(0,70)" s:x="0" s:y="10" s:pid="in0" id="port_J1~DP_A6">
      <text x="-3" y="-4" class="inputPortLabel cell_J1">DP_A6</text>
    </g>
    <g transform="translate(0,90)" s:x="0" s:y="10" s:pid="in0" id="port_J1~DN_A7">
      <text x="-3" y="-4" class="inputPortLabel cell_J1">DN_A7</text>
    </g>
    <g transform="translate(0,110)" s:x="0" s:y="10" s:pid="in0" id="port_J1~SBU1">
      <text x="-3" y="-4" class="inputPortLabel cell_J1">SBU1</text>
    </g>
    <g transform="translate(0,130)" s:x="0" s:y="10" s:pid="in0" id="port_J1~VBUS_A9">
      <text x="-3" y="-4" class="inputPortLabel cell_J1">VBUS_A9</text>
    </g>
    <g transform="translate(0,150)" s:x="0" s:y="10" s:pid="in0" id="port_J1~GND_A12">
      <text x="-3" y="-4" class="inputPortLabel cell_J1">GND_A12</text>
    </g>
    <g transform="translate(0,170)" s:x="0" s:y="10" s:pid="in0" id="port_J1~GND_B1">
      <text x="-3" y="-4" class="inputPortLabel cell_J1">GND_B1</text>
    </g>
    <g transform="translate(0,190)" s:x="0" s:y="10" s:pid="in0" id="port_J1~VBUS_B4">
      <text x="-3" y="-4" class="inputPortLabel cell_J1">VBUS_B4</text>
    </g>
    <g transform="translate(0,210)" s:x="0" s:y="10" s:pid="in0" id="port_J1~CC2">
      <text x="-3" y="-4" class="inputPortLabel cell_J1">CC2</text>
    </g>
    <g transform="translate(0,230)" s:x="0" s:y="10" s:pid="in0" id="port_J1~DP_B6">
      <text x="-3" y="-4" class="inputPortLabel cell_J1">DP_B6</text>
    </g>
    <g transform="translate(0,250)" s:x="0" s:y="10" s:pid="in0" id="port_J1~DN_B7">
      <text x="-3" y="-4" class="inputPortLabel cell_J1">DN_B7</text>
    </g>
    <g transform="translate(0,270)" s:x="0" s:y="10" s:pid="in0" id="port_J1~SBU2">
      <text x="-3" y="-4" class="inputPortLabel cell_J1">SBU2</text>
    </g>
    <g transform="translate(0,290)" s:x="0" s:y="10" s:pid="in0" id="port_J1~VBUS_B9">
      <text x="-3" y="-4" class="inputPortLabel cell_J1">VBUS_B9</text>
    </g>
    <g transform="translate(0,310)" s:x="0" s:y="10" s:pid="in0" id="port_J1~GND_B12">
      <text x="-3" y="-4" class="inputPortLabel cell_J1">GND_B12</text>
    </g>
    <g transform="translate(0,330)" s:x="0" s:y="10" s:pid="in0" id="port_J1~SHIELD">
      <text x="-3" y="-4" class="inputPortLabel cell_J1">SHIELD</text>
    </g>
  </g>
  <g s:type="generic" transform="translate(105,22)" s:width="30" s:height="40" id="cell_R1">
    <text x="15" y="-4" class="nodelabel cell_R1" s:attribute="ref">5.1k</text>
    <rect width="30" height="40" s:generic="body" class="cell_R1"/>
    <g transform="translate(0,10)" s:x="0" s:y="10" s:pid="in0" id="port_R1~1">
      <text x="-3" y="-4" class="inputPortLabel cell_R1">1</text>
    </g>
    <g transform="translate(0,30)" s:x="0" s:y="10" s:pid="in0" id="port_R1~2">
      <text x="-3" y="-4" class="inputPortLabel cell_R1">2</text>
    </g>
  </g>
  <g s:type="generic" transform="translate(105,498)" s:width="30" s:height="40" id="cell_R2">
    <text x="15" y="-4" class="nodelabel cell_R2" s:attribute="ref">5.1k</text>
    <rect width="30" height="40" s:generic="body" class="cell_R2"/>
    <g transform="translate(0,10)" s:x="0" s:y="10" s:pid="in0" id="port_R2~1">
      <text x="-3" y="-4" class="inputPortLabel cell_R2">1</text>
    </g>
    <g transform="translate(0,30)" s:x="0" s:y="10" s:pid="in0" id="port_R2~2">
      <text x="-3" y="-4" class="inputPortLabel cell_R2">2</text>
    </g>
  </g>
  <line x1="42" x2="105" y1="120.5" y2="120.5" class="net_2"/>
  <line x1="42" x2="42" y1="120.5" y2="180.5" class="net_2"/>
  <circle cx="42" cy="120.5" r="2" style="fill:#000" class="net_2"/>
  <circle cx="42" cy="180.5" r="2" style="fill:#000" class="net_2"/>
  <line x1="42" x2="105" y1="180.5" y2="180.5" class="net_2"/>
  <line x1="42" x2="42" y1="120.5" y2="200.5" class="net_2"/>
  <circle cx="42" cy="200.5" r="2" style="fill:#000" class="net_2"/>
  <line x1="42" x2="105" y1="200.5" y2="200.5" class="net_2"/>
  <line x1="42" x2="42" y1="120.5" y2="220.5" class="net_2"/>
  <circle cx="42" cy="220.5" r="2" style="fill:#000" class="net_2"/>
  <line x1="42" x2="105" y1="220.5" y2="220.5" class="net_2"/>
  <line x1="42" x2="42" y1="120.5" y2="260.5" class="net_2"/>
  <circle cx="42" cy="260.5" r="2" style="fill:#000" class="net_2"/>
  <line x1="42" x2="105" y1="260.5" y2="260.5" class="net_2"/>
  <line x1="42" x2="42" y1="120.5" y2="280.5" class="net_2"/>
  <circle cx="42" cy="280.5" r="2" style="fill:#000" class="net_2"/>
  <line x1="42" x2="105" y1="280.5" y2="280.5" class="net_2"/>
  <line x1="42" x2="42" y1="120.5" y2="340.5" class="net_2"/>
  <circle cx="42" cy="340.5" r="2" style="fill:#000" class="net_2"/>
  <line x1="42" x2="105" y1="340.5" y2="340.5" class="net_2"/>
  <line x1="42" x2="42" y1="120.5" y2="360.5" class="net_2"/>
  <circle cx="42" cy="360.5" r="2" style="fill:#000" class="net_2"/>
  <line x1="42" x2="105" y1="360.5" y2="360.5" class="net_2"/>
  <line x1="42" x2="42" y1="120.5" y2="380.5" class="net_2"/>
  <circle cx="42" cy="380.5" r="2" style="fill:#000" class="net_2"/>
  <line x1="42" x2="105" y1="380.5" y2="380.5" class="net_2"/>
  <line x1="42" x2="42" y1="120.5" y2="420.5" class="net_2"/>
  <circle cx="42" cy="420.5" r="2" style="fill:#000" class="net_2"/>
  <line x1="42" x2="105" y1="420.5" y2="420.5" class="net_2"/>
  <line x1="42" x2="42" y1="120.5" y2="440.5" class="net_2"/>
  <circle cx="42" cy="440.5" r="2" style="fill:#000" class="net_2"/>
  <line x1="42" x2="105" y1="440.5" y2="440.5" class="net_2"/>
  <line x1="42" x2="42" y1="120.5" y2="52.5" class="net_2"/>
  <line x1="42" x2="105" y1="52.5" y2="52.5" class="net_2"/>
  <line x1="42" x2="42" y1="120.5" y2="528.5" class="net_2"/>
  <line x1="42" x2="105" y1="528.5" y2="528.5" class="net_2"/>
  <line x1="22" x2="22" y1="85.5" y2="140.5" class="net_3"/>
  <circle cx="22" cy="140.5" r="2" style="fill:#000" class="net_3"/>
  <line x1="22" x2="105" y1="140.5" y2="140.5" class="net_3"/>
  <line x1="22" x2="22" y1="85.5" y2="240.5" class="net_3"/>
  <circle cx="22" cy="240.5" r="2" style="fill:#000" class="net_3"/>
  <line x1="22" x2="105" y1="240.5" y2="240.5" class="net_3"/>
  <line x1="22" x2="22" y1="85.5" y2="300.5" class="net_3"/>
  <circle cx="22" cy="300.5" r="2" style="fill:#000" class="net_3"/>
  <line x1="22" x2="105" y1="300.5" y2="300.5" class="net_3"/>
  <line x1="22" x2="22" y1="85.5" y2="400.5" class="net_3"/>
  <line x1="22" x2="105" y1="400.5" y2="400.5" class="net_3"/>
  <line x1="52" x2="52" y1="32.5" y2="160.5" class="net_4"/>
  <line x1="52" x2="105" y1="160.5" y2="160.5" class="net_4"/>
  <line x1="52" x2="105" y1="32.5" y2="32.5" class="net_4"/>
  <line x1="32" x2="32" y1="508.5" y2="320.5" class="net_5"/>
  <line x1="32" x2="105" y1="320.5" y2="320.5" class="net_5"/>
  <line x1="32" x2="105" y1="508.5" y2="508.5" class="net_5"/>
</svg>
