<svg xmlns="http://www.w3.org/2000/svg" xmlns:xlink="http://www.w3.org/1999/xlink" xmlns:s="https://github.com/nturley/netlistsvg" width="101" height="421">
  <style>svg {
    stroke:#000;
    fill:none;
  }
  text {
    fill:#000;
    stroke:none;
    font-size:10px;
    font-weight: bold;
    font-family: "Courier New", monospace;
  }
  .nodelabel {
    text-anchor: middle;
  }
  .inputPortLabel {
    text-anchor: end;
  }
  .splitjoinBody {
    fill:#000;
  }</style>
  <g s:type="generic" transform="translate(59,110)" s:width="30" s:height="40" id="cell_D2">
    <text x="15" y="-4" class="nodelabel cell_D2" s:attribute="ref">YELLOW</text>
    <rect width="30" height="80" s:generic="body" class="cell_D2"/>
    <g transform="translate(0,10)" s:x="0" s:y="10" s:pid="in0" id="port_D2~1">
      <text x="-3" y="-4" class="inputPortLabel cell_D2">1</text>
    </g>
    <g transform="translate(0,30)" s:x="0" s:y="10" s:pid="in0" id="port_D2~2">
      <text x="-3" y="-4" class="inputPortLabel cell_D2">2</text>
    </g>
    <g transform="translate(0,50)" s:x="0" s:y="10" s:pid="in0" id="port_D2~K">
      <text x="-3" y="-4" class="inputPortLabel cell_D2">K</text>
    </g>
    <g transform="translate(0,70)" s:x="0" s:y="10" s:pid="in0" id="port_D2~A">
      <text x="-3" y="-4" class="inputPortLabel cell_D2">A</text>
    </g>
  </g>
  <g s:type="generic" transform="translate(59,22)" s:width="30" s:height="40" id="cell_R10">
    <text x="15" y="-4" class="nodelabel cell_R10" s:attribute="ref">1.8k</text>
    <rect width="30" height="40" s:generic="body" class="cell_R10"/>
    <g transform="translate(0,10)" s:x="0" s:y="10" s:pid="in0" id="port_R10~1">
      <text x="-3" y="-4" class="inputPortLabel cell_R10">1</text>
    </g>
    <g transform="translate(0,30)" s:x="0" s:y="10" s:pid="in0" id="port_R10~2">
      <text x="-3" y="-4" class="inputPortLabel cell_R10">2</text>
    </g>
  </g>
  <g s:type="generic" transform="translate(59,238)" s:width="30" s:height="40" id="cell_D1">
    <text x="15" y="-4" class="nodelabel cell_D1" s:attribute="ref">GREEN</text>
    <rect width="30" height="80" s:generic="body" class="cell_D1"/>
    <g transform="translate(0,10)" s:x="0" s:y="10" s:pid="in0" id="port_D1~1">
      <text x="-3" y="-4" class="inputPortLabel cell_D1">1</text>
    </g>
    <g transform="translate(0,30)" s:x="0" s:y="10" s:pid="in0" id="port_D1~2">
      <text x="-3" y="-4" class="inputPortLabel cell_D1">2</text>
    </g>
    <g transform="translate(0,50)" s:x="0" s:y="10" s:pid="in0" id="port_D1~K">
      <text x="-3" y="-4" class="inputPortLabel cell_D1">K</text>
    </g>
    <g transform="translate(0,70)" s:x="0" s:y="10" s:pid="in0" id="port_D1~A">
      <text x="-3" y="-4" class="inputPortLabel cell_D1">A</text>
    </g>
  </g>
  <g s:type="generic" transform="translate(59,366)" s:width="30" s:height="40" id="cell_R3">
    <text x="15" y="-4" class="nodelabel cell_R3" s:attribute="ref">820.0</text>
    <rect width="30" height="40" s:generic="body" class="cell_R3"/>
    <g transform="translate(0,10)" s:x="0" s:y="10" s:pid="in0" id="port_R3~1">
      <text x="-3" y="-4" class="inputPortLabel cell_R3">1</text>
    </g>
    <g transform="translate(0,30)" s:x="0" s:y="10" s:pid="in0" id="port_R3~2">
      <text x="-3" y="-4" class="inputPortLabel cell_R3">2</text>
    </g>
  </g>
  <line x1="32" x2="59" y1="120.5" y2="120.5" class="net_2"/>
  <line x1="32" x2="32" y1="120.5" y2="160.5" class="net_2"/>
  <circle cx="32" cy="160.5" r="2" style="fill:#000" class="net_2"/>
  <line x1="32" x2="59" y1="160.5" y2="160.5" class="net_2"/>
  <line x1="32" x2="32" y1="120.5" y2="248.5" class="net_2"/>
  <circle cx="32" cy="248.5" r="2" style="fill:#000" class="net_2"/>
  <line x1="32" x2="59" y1="248.5" y2="248.5" class="net_2"/>
  <line x1="32" x2="32" y1="120.5" y2="288.5" class="net_2"/>
  <line x1="32" x2="59" y1="288.5" y2="288.5" class="net_2"/>
  <line x1="42" x2="42" y1="52.5" y2="140.5" class="net_3"/>
  <circle cx="42" cy="140.5" r="2" style="fill:#000" class="net_3"/>
  <line x1="42" x2="59" y1="140.5" y2="140.5" class="net_3"/>
  <line x1="42" x2="42" y1="52.5" y2="180.5" class="net_3"/>
  <line x1="42" x2="59" y1="180.5" y2="180.5" class="net_3"/>
  <line x1="42" x2="59" y1="52.5" y2="52.5" class="net_3"/>
  <line x1="22" x2="59" y1="268.5" y2="268.5" class="net_5"/>
  <line x1="22" x2="22" y1="268.5" y2="308.5" class="net_5"/>
  <circle cx="22" cy="308.5" r="2" style="fill:#000" class="net_5"/>
  <line x1="22" x2="59" y1="308.5" y2="308.5" class="net_5"/>
  <line x1="22" x2="22" y1="268.5" y2="396.5" class="net_5"/>
  <line x1="22" x2="59" y1="396.5" y2="396.5" class="net_5"/>
</svg>
